<svg width="1113" height="675" viewBox="0 0 1113 675" fill="none" xmlns="http://www.w3.org/2000/svg">
<g clip-path="url(#clip0_184_17)">
<path d="M9.01697 0.0028417C188.123 76.225 363.752 204.186 416.224 335.815C323.884 218.107 146.746 103.819 0 65.975V116.238C470.255 302.585 334.128 469.968 783.783 675H918.993C772.657 619.359 639.207 543.367 552.401 430.111L552.372 430.09V430.076L552.401 430.11C695.363 540.077 887.937 627.048 1111.69 675H1113V484.044C863.483 437.659 690.78 365.885 585.426 286.443C716.051 355.409 930.439 414.205 1113 432.568V360.338C892.609 348.538 658.807 277.286 497.266 187.638C398.369 132.752 316.368 59.8364 163.923 0H9.01461L9.01697 0.0028417ZM841.293 146.567C809.947 146.567 784.535 161.881 784.535 180.775C784.535 199.668 809.947 214.986 841.293 214.986C872.639 214.986 898.048 199.668 898.048 180.775C898.048 161.881 872.639 146.567 841.293 146.567ZM13.7153 195.028C148.635 259.025 310.476 395.871 281.257 479.473C275.878 478.26 270.183 477.636 264.44 477.629C237.67 477.629 215.971 490.708 215.971 506.844C215.971 522.977 237.67 536.058 264.44 536.058C283.38 536.058 299.739 529.493 307.711 519.947C323.601 505.924 326.627 478.634 323.939 450.785C314.108 348.693 195.996 240.412 13.7153 195.028ZM1005.86 203.714C963.905 203.714 928.903 221.659 920.837 245.51C850.692 255.703 752.951 245.311 678.027 223.641C775.587 272.758 883.479 299.636 988.774 307.304C994.298 307.972 1000.01 308.327 1005.86 308.327C1053.79 308.327 1092.64 284.906 1092.64 256.019C1092.64 227.131 1053.8 203.713 1005.86 203.713L1005.86 203.714ZM347.56 378.338C375.066 426.853 386.607 491.509 370.792 540.937C351.608 549.16 339.079 562.66 339.079 577.928C339.079 602.984 372.778 623.297 414.351 623.297C455.924 623.297 489.624 602.986 489.624 577.928C489.624 568.951 485.284 560.591 477.819 553.547L347.56 378.34V378.338Z" fill="#F7931D" fill-opacity="0.1"/>
<path d="M53.5349 38.3398C59.9986 43.6492 60.5214 52.3907 55.2411 56.6979C49.9609 61.005 41.5503 58.8269 37.6003 51.338C35.1725 46.7351 34.3194 37.556 29.445 25.0739C40.6932 32.3568 49.5137 35.0367 53.5349 38.3398Z" fill="#F79323"/>
<path d="M56.3341 12.7216C64.6813 12.1808 71.0367 18.2055 70.1251 24.9584C69.2136 31.7112 61.5847 35.8686 53.5832 33.1005C48.6653 31.3991 41.7698 25.2808 29.6812 19.4989C42.8701 17.1292 51.1411 13.0582 56.3341 12.7216Z" fill="#F79323"/>
<path d="M32.6912 51.2854C33.8909 59.5636 28.388 66.3758 21.5841 66.0015C14.7803 65.6271 10.0323 58.3512 12.1585 50.1557C13.4654 45.1186 19.0189 37.7605 23.8261 25.2524C27.232 38.2124 31.9448 46.1353 32.6912 51.2854Z" fill="#F79323"/>
<path d="M1076.68 50.6813C1072.47 57.9094 1063.92 59.8205 1058.83 55.2954C1053.73 50.7702 1054.54 42.1197 1061.31 37.0252C1065.46 33.894 1074.39 31.5869 1085.93 24.7831C1080.54 37.0494 1079.3 46.1845 1076.68 50.6813Z" fill="#F79323"/>
<path d="M1102.42 49.3564C1104.28 57.5103 1099.35 64.7456 1092.54 64.9234C1085.73 65.1012 1080.4 58.2336 1081.86 49.8929C1082.75 44.7665 1087.69 36.9829 1091.47 24.1266C1095.92 36.7683 1101.26 44.2836 1102.42 49.3564Z" fill="#F79323"/>
<path d="M1060.57 32.1707C1052.59 34.676 1044.99 30.3308 1044.27 23.5544C1043.56 16.7781 1049.98 10.9297 1058.41 11.7209C1063.59 12.2072 1071.74 16.5153 1084.86 19.2647C1072.61 24.6952 1065.54 30.6119 1060.57 32.1707Z" fill="#F79323"/>
</g>
<defs>
<clipPath id="clip0_184_17">
<rect width="1113" height="675" fill="white"/>
</clipPath>
</defs>
</svg>
