<svg width="24" height="24" viewBox="0 0 24 24" fill="none" xmlns="http://www.w3.org/2000/svg">
<path d="M12.5712 11.01C12.0981 10.887 11.625 10.641 11.2702 10.272C10.9154 10.149 10.7971 9.77999 10.7971 9.53399C10.7971 9.28799 10.9154 8.91899 11.1519 8.79599C11.5068 8.54999 11.8616 8.30399 12.2164 8.42699C12.926 8.42699 13.5173 8.79599 13.8721 9.28799L14.9366 7.81199C14.5818 7.44299 14.2269 7.19699 13.8721 6.95099C13.5173 6.70499 13.0443 6.58199 12.5712 6.58199V4.85999H11.1519V6.58199C10.5606 6.70499 9.96925 7.07399 9.49618 7.56599C9.0231 8.18099 8.66829 8.91899 8.78656 9.65699C8.78656 10.395 9.0231 11.133 9.49618 11.625C10.0875 12.24 10.9154 12.609 11.625 12.978C11.9798 13.101 12.4529 13.347 12.8077 13.593C13.0443 13.839 13.1625 14.208 13.1625 14.577C13.1625 14.946 13.0443 15.315 12.8077 15.684C12.4529 16.053 11.9798 16.176 11.625 16.176C11.1519 16.176 10.5606 16.053 10.2058 15.684C9.85099 15.438 9.49618 15.069 9.25964 14.7L8.07695 16.053C8.43176 16.545 8.78656 16.914 9.25964 17.283C9.85099 17.652 10.5606 18.021 11.2702 18.021V19.62H12.5712V17.775C13.2808 17.652 13.8721 17.283 14.3452 16.791C14.9366 16.176 15.2914 15.192 15.2914 14.331C15.2914 13.593 15.0548 12.732 14.4635 12.24C13.8721 11.625 13.2808 11.256 12.5712 11.01ZM11.8616 2.39999C6.65772 2.39999 2.40002 6.82799 2.40002 12.24C2.40002 17.652 6.65772 22.08 11.8616 22.08C17.0654 22.08 21.3231 17.652 21.3231 12.24C21.3231 6.82799 17.0654 2.39999 11.8616 2.39999ZM11.8616 20.727C7.36733 20.727 3.70099 16.914 3.70099 12.24C3.70099 7.56599 7.36733 3.75299 11.8616 3.75299C16.3558 3.75299 20.0221 7.56599 20.0221 12.24C20.0221 16.914 16.3558 20.727 11.8616 20.727Z" fill="#B8B8B8"/>
</svg>
