<svg width="24" height="24" viewBox="0 0 24 24" fill="none" xmlns="http://www.w3.org/2000/svg">
<g clip-path="url(#clip0_35_230)">
<path fill-rule="evenodd" clip-rule="evenodd" d="M3.05546 3.05546C3.57118 2.53973 4.27065 2.25 5 2.25H18C18.7293 2.25 19.4288 2.53973 19.9445 3.05546C20.4603 3.57118 20.75 4.27065 20.75 5V11C20.75 11.4142 20.4142 11.75 20 11.75C19.5858 11.75 19.25 11.4142 19.25 11V5C19.25 4.66848 19.1183 4.35054 18.8839 4.11612C18.6495 3.8817 18.3315 3.75 18 3.75H5C4.66848 3.75 4.35054 3.8817 4.11612 4.11612C3.8817 4.35054 3.75 4.66848 3.75 5V19C3.75 19.3315 3.8817 19.6495 4.11612 19.8839C4.35054 20.1183 4.66848 20.25 5 20.25H10C10.4142 20.25 10.75 20.5858 10.75 21C10.75 21.4142 10.4142 21.75 10 21.75H5C4.27065 21.75 3.57118 21.4603 3.05546 20.9445C2.53973 20.4288 2.25 19.7293 2.25 19V5C2.25 4.27065 2.53973 3.57118 3.05546 3.05546Z" fill="#8F8F8F"/>
<path fill-rule="evenodd" clip-rule="evenodd" d="M14.743 14.568C14.6694 14.568 14.5975 14.5896 14.5361 14.6302C14.4747 14.6707 14.4266 14.7283 14.3976 14.7959L13.8511 16.0748C13.825 16.1361 13.8039 16.199 13.7878 16.2629C13.8578 16.2544 13.9287 16.25 14 16.25H16.75V14.568H14.743ZM18.25 16.25H21C21.0712 16.25 21.1419 16.2543 21.2119 16.2629C21.1959 16.1998 21.1751 16.1379 21.1494 16.0778L20.6014 14.7958C20.5422 14.6575 20.4062 14.568 20.257 14.568H18.25V16.25ZM21.25 18C21.25 17.9337 21.2237 17.8701 21.1768 17.8232C21.1299 17.7763 21.0663 17.75 21 17.75H14C13.9337 17.75 13.8701 17.7763 13.8232 17.8232C13.7763 17.8701 13.75 17.9337 13.75 18V20.875C13.75 20.9745 13.7895 21.0698 13.8598 21.1402C13.9302 21.2105 14.0255 21.25 14.125 21.25H21C21.0663 21.25 21.1299 21.2237 21.1768 21.1768C21.2237 21.1299 21.25 21.0663 21.25 21V18ZM12.25 18V16.567C12.25 16.1949 12.3258 15.8281 12.4709 15.4872L13.0183 14.2063C13.1628 13.8686 13.4034 13.5805 13.7099 13.3782C14.0165 13.1759 14.3756 13.0681 14.7429 13.068H17.5H20.257C21.0078 13.068 21.6858 13.5166 21.9806 14.2062L22.5286 15.4882C22.6747 15.8298 22.75 16.1974 22.75 16.5689V18V21C22.75 21.4641 22.5656 21.9092 22.2374 22.2374C21.9092 22.5656 21.4641 22.75 21 22.75H14.125C13.6277 22.75 13.1508 22.5525 12.7992 22.2008C12.4475 21.8492 12.25 21.3723 12.25 20.875V18Z" fill="#8F8F8F"/>
<path fill-rule="evenodd" clip-rule="evenodd" d="M6.125 7.75C6.60825 7.75 7 7.35825 7 6.875C7 6.39175 6.60825 6 6.125 6C5.64175 6 5.25 6.39175 5.25 6.875C5.25 7.35825 5.64175 7.75 6.125 7.75ZM8.5 7.12C8.5 6.70578 8.83579 6.37 9.25 6.37H16C16.4142 6.37 16.75 6.70578 16.75 7.12C16.75 7.53421 16.4142 7.87 16 7.87H9.25C8.83579 7.87 8.5 7.53421 8.5 7.12ZM9.25 10.25C8.83579 10.25 8.5 10.5858 8.5 11C8.5 11.4142 8.83579 11.75 9.25 11.75H13C13.4142 11.75 13.75 11.4142 13.75 11C13.75 10.5858 13.4142 10.25 13 10.25H9.25ZM9.25 14.25C8.83579 14.25 8.5 14.5858 8.5 15C8.5 15.4142 8.83579 15.75 9.25 15.75H10C10.4142 15.75 10.75 15.4142 10.75 15C10.75 14.5858 10.4142 14.25 10 14.25H9.25ZM7 11.005C7 11.4883 6.60825 11.88 6.125 11.88C5.64175 11.88 5.25 11.4883 5.25 11.005C5.25 10.5218 5.64175 10.13 6.125 10.13C6.60825 10.13 7 10.5218 7 11.005ZM6.125 15.88C6.60825 15.88 7 15.4883 7 15.005C7 14.5218 6.60825 14.13 6.125 14.13C5.64175 14.13 5.25 14.5218 5.25 15.005C5.25 15.4883 5.64175 15.88 6.125 15.88Z" fill="#8F8F8F"/>
</g>
<defs>
<clipPath id="clip0_35_230">
<rect width="24" height="24" fill="white"/>
</clipPath>
</defs>
</svg>
