<svg width="24" height="23" viewBox="0 0 24 23" fill="none" xmlns="http://www.w3.org/2000/svg">
<path d="M18 1H13C13 1.55 12.55 2 12 2C11.45 2 11 1.55 11 1H6C4.9 1 4 1.9 4 3V19C4 20.1 4.9 21 6 21H18C19.1 21 20 20.1 20 19V3C20 1.9 19.1 1 18 1Z" fill="#B8B8B8"/>
<path d="M18 19.5H6C5.7 19.5 5.5 19.3 5.5 19V3C5.5 2.7 5.7 2.5 6 2.5H18C18.3 2.5 18.5 2.7 18.5 3V19C18.5 19.3 18.3 19.5 18 19.5Z" fill="white"/>
<path d="M13 1C13 1.55 12.55 2 12 2C11.45 2 11 1.55 11 1H7.5V3C7.5 3.55 7.95 4 8.5 4H15.5C16.05 4 16.5 3.55 16.5 3V1H13Z" fill="#B8B8B8"/>
<path d="M12 -1C10.9 -1 10 -0.1 10 1C10 2.1 10.9 3 12 3C13.1 3 14 2.1 14 1C14 -0.1 13.1 -1 12 -1ZM12 2C11.45 2 11 1.55 11 1C11 0.45 11.45 0 12 0C12.55 0 13 0.45 13 1C13 1.55 12.55 2 12 2Z" fill="#B8B8B8"/>
<path d="M10.5 9H16.5V10H10.5V9ZM7.5 8.5H9.5V10.5H7.5V8.5Z" fill="black"/>
<path d="M10.5 13.5H16.5V14.5H10.5V13.5ZM7.5 13H9.5V15H7.5V13Z" fill="#B8B8B8"/>
</svg>
