<svg width="20" height="20" viewBox="0 0 20 20" fill="none" xmlns="http://www.w3.org/2000/svg">
<path fill-rule="evenodd" clip-rule="evenodd" d="M1.75 3.07497C1.75 2.34318 2.34321 1.74997 3.075 1.74997H16.924C17.657 1.74997 18.25 2.34342 18.25 3.07497V12.9243C18.2501 13.0984 18.2159 13.2708 18.1493 13.4316C18.0828 13.5924 17.9852 13.7386 17.8621 13.8617C17.7391 13.9848 17.593 14.0824 17.4322 14.149C17.2714 14.2157 17.0991 14.25 16.925 14.25H13.0171C13.0061 14.2497 12.9951 14.2497 12.984 14.25H7.01594C7.0049 14.2497 6.99389 14.2497 6.98291 14.25H3.075C2.72359 14.25 2.38657 14.1104 2.13808 13.8619C1.8896 13.6134 1.75 13.2764 1.75 12.925V3.07497ZM6.03941 15.75H3.075C2.32576 15.75 1.60721 15.4523 1.07742 14.9225C0.547633 14.3928 0.25 13.6742 0.25 12.925V3.07497C0.25 1.51476 1.51479 0.249969 3.075 0.249969H16.924C18.485 0.249969 19.75 1.51452 19.75 3.07497V12.9236C19.7501 13.2946 19.6772 13.6623 19.5354 14.0051C19.3935 14.348 19.1854 14.6596 18.9231 14.9221C18.6607 15.1845 18.3492 15.3927 18.0064 15.5348C17.6636 15.6769 17.2961 15.75 16.925 15.75H13.9606L14.7276 18.8181C14.8281 19.2199 14.5837 19.6271 14.1819 19.7276C13.7801 19.828 13.3728 19.5837 13.2724 19.1819L12.4144 15.75H7.58558L6.7276 19.1819C6.62714 19.5837 6.21994 19.828 5.81809 19.7276C5.41625 19.6271 5.17193 19.2199 5.27239 18.8181L6.03941 15.75Z" fill="#B8B8B8"/>
<path fill-rule="evenodd" clip-rule="evenodd" d="M9.25 4.99997C9.25 4.58576 8.91421 4.24997 8.5 4.24997C8.08579 4.24997 7.75 4.58576 7.75 4.99997V11C7.75 11.4142 8.08579 11.75 8.5 11.75C8.91421 11.75 9.25 11.4142 9.25 11V4.99997ZM6.25 8.26999C6.25 7.85578 5.91421 7.51999 5.5 7.51999C5.08579 7.51999 4.75 7.85578 4.75 8.26999V11C4.75 11.4142 5.08579 11.75 5.5 11.75C5.91421 11.75 6.25 11.4142 6.25 11V8.26999ZM11.5 6.92996C11.9142 6.92996 12.25 7.26575 12.25 7.67996V11C12.25 11.4142 11.9142 11.75 11.5 11.75C11.0858 11.75 10.75 11.4142 10.75 11V7.67996C10.75 7.26575 11.0858 6.92996 11.5 6.92996ZM15.25 5.54996C15.25 5.13574 14.9142 4.79996 14.5 4.79996C14.0858 4.79996 13.75 5.13574 13.75 5.54996V11C13.75 11.4142 14.0858 11.75 14.5 11.75C14.9142 11.75 15.25 11.4142 15.25 11V5.54996Z" fill="black"/>
</svg>
