<svg width="24" height="24" viewBox="0 0 24 24" fill="none" xmlns="http://www.w3.org/2000/svg">
<g clip-path="url(#clip0_35_262)">
<path fill-rule="evenodd" clip-rule="evenodd" d="M4.40901 4.40901C4.83097 3.98705 5.40326 3.75 6 3.75H18C18.5967 3.75 19.169 3.98705 19.591 4.40901C20.0129 4.83097 20.25 5.40326 20.25 6V7.25H3.75V6C3.75 5.40326 3.98705 4.83097 4.40901 4.40901ZM2.25 8V6C2.25 5.00544 2.64509 4.05161 3.34835 3.34835C4.05161 2.64509 5.00544 2.25 6 2.25H18C18.9946 2.25 19.9484 2.64509 20.6517 3.34835C21.3549 4.05161 21.75 5.00544 21.75 6V8V14.673C21.75 15.0872 21.4142 15.423 21 15.423C20.5858 15.423 20.25 15.0872 20.25 14.673V8.75H3.75V18C3.75 18.5967 3.98705 19.169 4.40901 19.591C4.83097 20.0129 5.40326 20.25 6 20.25H14.672C15.0862 20.25 15.422 20.5858 15.422 21C15.422 21.4142 15.0862 21.75 14.672 21.75H6C5.00544 21.75 4.05161 21.3549 3.34835 20.6517C2.64509 19.9484 2.25 18.9946 2.25 18V8Z" fill="#B8B8B8"/>
<path fill-rule="evenodd" clip-rule="evenodd" d="M6.75 10.75C6.33579 10.75 6 11.0858 6 11.5C6 11.9142 6.33579 12.25 6.75 12.25H13C13.4142 12.25 13.75 11.9142 13.75 11.5C13.75 11.0858 13.4142 10.75 13 10.75H6.75ZM6 14.5C6 14.0858 6.33579 13.75 6.75 13.75H11C11.4142 13.75 11.75 14.0858 11.75 14.5C11.75 14.9142 11.4142 15.25 11 15.25H6.75C6.33579 15.25 6 14.9142 6 14.5ZM6 17.5C6 17.0858 6.33579 16.75 6.75 16.75H10C10.4142 16.75 10.75 17.0858 10.75 17.5C10.75 17.9142 10.4142 18.25 10 18.25H6.75C6.33579 18.25 6 17.9142 6 17.5Z" fill="#B8B8B8"/>
<path fill-rule="evenodd" clip-rule="evenodd" d="M17.5 13.75C15.4289 13.75 13.75 15.4289 13.75 17.5C13.75 19.5711 15.4289 21.25 17.5 21.25C19.5711 21.25 21.25 19.5711 21.25 17.5C21.25 15.4289 19.5711 13.75 17.5 13.75ZM12.25 17.5C12.25 14.6005 14.6005 12.25 17.5 12.25C20.3995 12.25 22.75 14.6005 22.75 17.5C22.75 20.3995 20.3995 22.75 17.5 22.75C14.6005 22.75 12.25 20.3995 12.25 17.5Z" fill="black"/>
<path fill-rule="evenodd" clip-rule="evenodd" d="M17.4801 15C17.8943 15 18.2301 15.3358 18.2301 15.75V15.8199C18.4287 15.8939 18.6159 15.998 18.7847 16.1297L18.8344 16.1009C19.1928 15.8934 19.6517 16.0158 19.8592 16.3742C20.0667 16.7327 19.9444 17.1915 19.5859 17.3991L19.5564 17.4162C19.5753 17.5254 19.5856 17.6362 19.587 17.7476C19.5884 17.8617 19.5804 17.9755 19.5632 18.0878L19.5859 18.1009C19.9444 18.3085 20.0667 18.7673 19.8592 19.1258C19.6517 19.4842 19.1928 19.6066 18.8344 19.3991L18.8182 19.3897C18.6586 19.5196 18.4802 19.6253 18.2889 19.7032C18.2694 19.7111 18.2498 19.7188 18.2301 19.7261V19.75C18.2301 20.1642 17.8943 20.5 17.4801 20.5C17.0659 20.5 16.7301 20.1642 16.7301 19.75V19.7084C16.7102 19.7004 16.6903 19.6921 16.6705 19.6835C16.4893 19.6045 16.3207 19.5003 16.1694 19.3743L16.121 19.4019C15.761 19.6067 15.3031 19.4809 15.0983 19.1209C14.8934 18.7609 15.0192 18.303 15.3792 18.0981L15.4395 18.0638C15.4248 17.9597 15.418 17.854 15.4193 17.7476C15.4205 17.6439 15.4295 17.541 15.4459 17.4398L15.3792 17.4019C15.0192 17.197 14.8934 16.7391 15.0983 16.3791C15.3031 16.0191 15.761 15.8933 16.121 16.0981L16.2027 16.1446C16.3632 16.0164 16.5411 15.9132 16.7301 15.8377V15.75C16.7301 15.3358 17.0659 15 17.4801 15ZM17.9798 17.4356C17.958 17.4049 17.9333 17.3762 17.9059 17.3501C17.7955 17.245 17.6484 17.1872 17.496 17.1891C17.3436 17.1909 17.198 17.2523 17.0902 17.3601C16.9824 17.4679 16.921 17.6135 16.9192 17.7659C16.9173 17.9183 16.9751 18.0654 17.0802 18.1758C17.1339 18.2322 17.1984 18.2773 17.2698 18.3084C17.2993 18.3213 17.3298 18.3316 17.3609 18.3394C17.3997 18.3332 17.4396 18.33 17.4801 18.33C17.5298 18.33 17.5784 18.3349 17.6254 18.3441C17.6588 18.3369 17.6916 18.3269 17.7233 18.3139C17.7955 18.2846 17.861 18.2411 17.9161 18.186C17.9221 18.1799 17.928 18.1738 17.9338 18.1675C17.9489 18.1255 17.9679 18.0842 17.9911 18.0442C18.0123 18.0076 18.0361 17.9734 18.0622 17.9418C18.0794 17.8849 18.0878 17.8256 18.0871 17.7659C18.0861 17.688 18.0696 17.6111 18.0385 17.5397C18.0332 17.5277 18.0276 17.5158 18.0216 17.5042C18.0109 17.4885 18.0007 17.4724 17.9911 17.4558C17.9872 17.4491 17.9834 17.4424 17.9798 17.4356Z" fill="black"/>
</g>
<defs>
<clipPath id="clip0_35_262">
<rect width="24" height="24" fill="white"/>
</clipPath>
</defs>
</svg>
